<svg id="Capa_1" enable-background="new 0 0 498.665 498.665" height="512" viewBox="0 0 498.665 498.665" width="512" xmlns="http://www.w3.org/2000/svg"><g><path d="m122.901 304.601c-11.934-.032-21.279-9.344-20.21-20.137l14.747-148.956c5.307-53.608 62.272-94.892 130.68-94.707 68.881.186 125.845 42.337 130.25 96.379l12.085 148.263c.875 10.729-8.49 19.859-20.336 19.827z" fill="#777078"/><path d="m323.036 228.31c14.777 0 26.763-11.986 26.763-26.763s-11.986-26.763-26.763-26.763z" fill="#ffdecf"/><path d="m332.857 347.565c48.352 0 87.551 39.199 87.551 87.551v52.485c0 6.105-4.958 11.063-11.063 11.063h-320.019c-6.105 0-11.063-4.958-11.063-11.063v-52.485c0-48.352 39.199-87.551 87.551-87.551z" fill="#91deb6"/><path d="m103.443 435.118v52.486c0 6.105 4.967 11.061 11.071 11.061h-25.185c-6.105 0-11.071-4.956-11.071-11.061v-52.486c0-48.355 39.208-87.553 87.554-87.553h25.185c-48.346 0-87.554 39.198-87.554 87.553z" fill="#6ed5a1"/><path d="m161.529 348.518c-.502-.357-.443-1.12.108-1.396l36.055-18.028c5.045-2.518 8.224-7.668 8.224-13.295v-44.547l81.629 1.25v43.298c0 5.627 3.178 10.777 8.224 13.295l35.73 17.869c.548.274.61 1.032.114 1.391l-76.513 55.511c-4.649 3.373-10.931 3.403-15.612.075z" fill="#ffdecf"/><path d="m259.782 400.463-4.684 3.405c-4.644 3.375-10.93 3.405-15.615.071l-77.953-55.417c-.504-.363-.443-1.128.111-1.4l36.055-18.023c5.037-2.518 8.22-7.676 8.22-13.298v-44.547l25.185.383v44.164c0 5.621-3.183 10.779-8.22 13.298l-22.032 11.011c-6.911 3.456-7.646 13.016-1.36 17.499z" fill="#ffcdbe"/><path d="m268.901 103.94c-26.152 30.231-99.11 46.536-99.11 46.536l-.181 68.675c-.101 36.75 29.598 66.63 66.358 66.73l20.611.05c36.75.101 66.63-29.608 66.73-66.358l.212-78.044c-25.251-.788-41.992-25.735-48.256-36.942-1.325-2.368-4.588-2.7-6.364-.647z" fill="#ffdecf"/><path d="m170.757 230.192c-14.624 0-26.486-11.862-26.486-26.486 0-14.563 11.767-26.39 26.312-26.486z" fill="#ffdecf"/><path d="m260.265 41.283c-62.469 4.755-112.678 44.547-117.645 95.24l-14.748 150.557c-.715 7.324 3.264 13.973 9.57 17.559l-14.537-.04c-11.938-.03-21.286-9.339-20.219-20.138l14.749-148.955c5.309-53.604 62.278-94.887 130.68-94.706 4.101.01 8.151.171 12.15.483z" fill="#5f5a60"/><path d="m308.351 62.459h-105.591c-3.968 0-7.449-2.644-8.514-6.466l-12.481-44.781c-1.571-5.634 2.665-11.212 8.514-11.212h130.554c5.849 0 10.085 5.578 8.514 11.212l-12.481 44.781c-1.066 3.822-4.547 6.466-8.515 6.466z" fill="#91deb6"/><path d="m209.955 62.459h-25.185c-3.969 0-7.455-2.64-8.513-6.467l-12.482-44.779c-1.57-5.632 2.661-11.213 8.514-11.213h25.185c-5.853 0-10.084 5.581-8.513 11.212l12.482 44.779c1.058 3.829 4.543 6.468 8.512 6.468z" fill="#6ed5a1"/><path d="m259.782 285.861c-1.058.05-2.126.071-3.204.071l-20.611-.05c-36.76-.101-66.458-29.98-66.358-66.73l.181-68.675s72.956-16.31 99.108-46.532c1.773-2.055 5.037-1.723 6.367.645 1.562 2.79 3.778 6.437 6.609 10.356-23.251 17.067-59.425 28.275-76.848 32.991-5.937 1.607-10.062 6.978-10.079 13.128l-.153 58.086c-.101 36.286 28.862 65.884 64.988 66.71z" fill="#ffcdbe"/></g></svg>