<svg height="512" viewBox="0 0 58 54" width="512" xmlns="http://www.w3.org/2000/svg"><g id="026---Paramedics" fill="none"><path id="Shape" d="m28.22 30.59-1.04 21.41h-17.44c-1.19343821-.0062768-2.2488917-.7757104-2.62-1.91-.06-.05-.06-.06-.05-.06-4.02-.79-7.07-5.58-7.07-9.81.00325421-4.4508678 3.40608684-8.1618651 7.84-8.55l3.68-.32c2.4072087-.2057412 4.3528363-2.0476572 4.69-4.44.05-.3.08-.58.11-.84l9.38-.02v.01c.04.27.07.56.12.87.1779528 1.2016063.7726102 2.3024304 1.68 3.11.2198986.2082512.4612461.3926139.72.55z" fill="#26b99a"/><path id="Shape" d="m28.22 30.59-1.04 21.41h-2c-.1211006-.3193958-.1821256-.6584234-.18-1v-18c-.0009569-1.4646503 1.0558349-2.7158919 2.5-2.96.2198986.2082512.4612461.3926139.72.55z" fill="#14a085"/><path id="Shape" d="m49 31c-.5522847 0-1-.4477153-1-1v-2c0-1.6568542-1.3431458-3-3-3h-5c-1.6568542 0-3 1.3431458-3 3v2c0 .5522847-.4477153 1-1 1s-1-.4477153-1-1v-2c.0033061-2.7600532 2.2399468-4.9966939 5-5h5c2.7600532.0033061 4.9966939 2.2399468 5 5v2c0 .5522847-.4477153 1-1 1z" fill="#547580"/><path id="Shape" d="m28.22 30.59-.07 1.4c-4.14 2.818-11.3 2.861-15.42-.89 1.8606191-.6238627 3.2082807-2.2464783 3.48-4.19.05-.3.08-.58.11-.84l9.38-.02c0 .026.115.847.12.88.2270308 1.5119794 1.1038288 2.8490963 2.4 3.66z" fill="#f9c795"/><rect id="Rectangle-path" fill="#33907c" height="24" rx="3" width="31" x="27" y="30"/><path id="Shape" d="m50.178 39.3-1.5-2.6c-.2761504-.4782682-.8877197-.6421293-1.366-.366l-2.312 1.336v-2.67c0-.5522847-.4477153-1-1-1h-3c-.5522847 0-1 .4477153-1 1v2.67l-2.312-1.335c-.4782803-.2761293-1.0898496-.1122682-1.366.366l-1.5 2.6c-.2761293.4782803-.1122682 1.0898496.366 1.366l2.312 1.333-2.312 1.335c-.4782682.2761504-.6421293.8877197-.366 1.366l1.5 2.6c.2761504.4782682.8877197.6421293 1.366.366l2.312-1.337v2.67c0 .5522847.4477153 1 1 1h3c.5522847 0 1-.4477153 1-1v-2.67l2.312 1.335c.4782803.2761293 1.0898496.1122682 1.366-.366l1.5-2.6c.2761293-.4782803.1122682-1.0898496-.366-1.366l-2.312-1.333 2.312-1.335c.4776685-.2761225.6414489-.8869428.366-1.365z" fill="#26b99a"/><path id="Shape" d="m31 36c-.5522847 0-1-.4477153-1-1v-1c0-.5522847.4477153-1 1-1s1 .4477153 1 1v1c0 .5522847-.4477153 1-1 1z" fill="#81ccb8"/><path id="Shape" d="m31 51c-.5522847 0-1-.4477153-1-1v-11c0-.5522847.4477153-1 1-1s1 .4477153 1 1v11c0 .5522847-.4477153 1-1 1z" fill="#81ccb8"/><path id="Shape" d="m30.252 12.917c.638-.5 2.782-1.937 2.782 2.01 0 3.756-2.421 4.469-3.346 4.606h-17.342c-.924-.133-3.346-.85-3.346-4.606 0-3.947 2.145-2.513 2.782-2.01z" fill="#f9c795"/><path id="Shape" d="m12.762 4.563c2.247-4.563 8.255-4.563 8.255-4.563s6.009 0 8.255 4.563c1.032 2.071 1.5 10.192.268 14.933-1.132 4.393-3.973 8.288-8.523 8.288-4.576 0-7.39-3.854-8.532-8.288-.5327298-2.3801809-.7718444-4.8166643-.712-7.255.042 3.059-.332-5.026.989-7.678z" fill="#fdd7ad"/></g></svg>