<svg id="Capa_1" enable-background="new 0 0 512 512" height="512" viewBox="0 0 512 512" width="512" xmlns="http://www.w3.org/2000/svg"><g><g><path d="m187.838 100.832h-104.783l-57.702 57.377c-6.339 6.303-9.9 14.852-9.9 23.766v44.439l15.453 105.21-15.453 105.21v41.556c0 18.563 15.133 33.611 33.801 33.611h172.385c18.668 0 33.801-15.048 33.801-33.611v-41.556l-15.453-105.21 15.453-105.21v-44.439c0-8.914-3.561-17.463-9.9-23.766z" fill="#b3e59f"/><path d="m245.54 158.208-57.702-57.377h-30.905l57.702 57.377c6.339 6.303 9.9 14.852 9.9 23.766v296.415c0 18.563-15.133 33.611-33.801 33.611h30.905c18.668 0 33.801-15.048 33.801-33.611v-41.556l-15.453-105.21 15.453-105.21v-44.439c0-8.914-3.561-17.462-9.9-23.766z" fill="#95d6a4"/><path d="m83.055 67.221h104.783v33.611h-104.783z" fill="#f7f6f7"/><path d="m156.932 67.221h30.905v33.611h-30.905z" fill="#e2dfe3"/><path d="m193.471 67.221h-116.05c-6.223 0-11.267-5.016-11.267-11.204v-33.61c0-12.375 10.089-22.407 22.534-22.407h93.516c12.445 0 22.534 10.032 22.534 22.407v33.611c0 6.187-5.044 11.203-11.267 11.203z" fill="#655e67"/><path d="m182.204 0h-30.905c12.445 0 22.534 10.032 22.534 22.407v33.611c0 6.188-5.044 11.203-11.267 11.203h30.905c6.223 0 11.267-5.016 11.267-11.203v-33.611c0-12.375-10.088-22.407-22.534-22.407z" fill="#544f56"/><path d="m15.453 226.414h239.987v210.42h-239.987z" fill="#f7f6f7"/><path d="m224.534 226.413h30.905v210.42h-30.905z" fill="#e2dfe3"/><path d="m189.531 316.171h-35.541c-1.707 0-3.091-1.384-3.091-3.091v-35.541c0-3.414-2.767-6.181-6.181-6.181h-18.543c-3.414 0-6.181 2.767-6.181 6.181v35.541c0 1.707-1.384 3.091-3.091 3.091h-35.541c-3.414 0-6.181 2.767-6.181 6.181v18.543c0 3.414 2.767 6.181 6.181 6.181h35.541c1.707 0 3.091 1.384 3.091 3.091v35.541c0 3.414 2.767 6.181 6.181 6.181h18.543c3.414 0 6.181-2.767 6.181-6.181v-35.541c0-1.707 1.384-3.091 3.091-3.091h35.541c3.414 0 6.181-2.767 6.181-6.181v-18.543c0-3.414-2.767-6.181-6.181-6.181z" fill="#e5979d"/></g><g><g><path d="m465.642 256.297v-4.812h-143.608v4.812c0 10.588-5.982 20.268-15.453 25.003-9.47 4.735-15.453 14.415-15.453 25.003v28.617l15.453 55.438-15.453 55.438v35.299c0 17.069 13.837 30.905 30.905 30.905h143.608c17.069 0 30.905-13.837 30.905-30.905v-35.299l-15.453-53.906 15.453-56.97v-28.617c0-10.588-5.982-20.268-15.453-25.003-9.469-4.735-15.451-14.415-15.451-25.003z" fill="#e5979d"/><path d="m481.095 281.3c-9.47-4.735-15.453-14.414-15.453-25.003v-4.812h-30.905v4.812c0 10.589 5.982 20.268 15.453 25.003 9.47 4.735 15.453 14.414 15.453 25.003v174.792c0 17.068-13.837 30.905-30.905 30.905h30.905c17.069 0 30.905-13.837 30.905-30.905v-35.299l-15.453-55.438 15.453-55.438v-28.617c-.001-10.589-5.983-20.268-15.453-25.003z" fill="#e17f85"/><path d="m473.806 251.485h-156.587c-5.69 0-10.302-4.612-10.302-10.302v-24.724c0-5.69 4.612-10.302 10.302-10.302h156.588c5.69 0 10.302 4.612 10.302 10.302v24.724c-.001 5.69-4.613 10.302-10.303 10.302z" fill="#655e67"/><path d="m473.806 206.157h-30.905c5.69 0 10.302 4.612 10.302 10.302v24.724c0 5.69-4.612 10.302-10.302 10.302h30.905c5.69 0 10.302-4.612 10.302-10.302v-24.724c0-5.69-4.612-10.302-10.302-10.302z" fill="#544f56"/></g><path d="m291.129 334.92h205.419v110.876h-205.419z" fill="#f7f6f7"/><path d="m465.642 334.92h30.905v110.876h-30.905z" fill="#e2dfe3"/></g></g></svg>